<svg xmlns="http://www.w3.org/2000/svg" viewBox="0 0 506 600">
  <path fill="#C51D34" d="M0 0 L365 250 L120 250 L365 550 L0 550 Z" />
  <path fill="#003893" d="M0 0 L385 250 L140 250 L385 550 L0 550 L0 0 M15 15 L15 535 L350 535 L130 265 L350 265 L15 15" />
  <path fill="#FFFFFF" d="M90 180 A40 40 0 0 1 170 180 M130 400 L130 400" />
  <path fill="#FFFFFF" d="M96.6 165.5a42.6 42.6 0 0 1 61.8 0 42.6 42.6 0 0 0-61.8 0zm30.9-17a29.8 29.8 0 0 0-29.8 29.8h59.6a29.8 29.8 0 0 0-29.8-29.8zM127.5 405l25.5 25.5-9.8 9.8-15.7-15.7-15.7 15.7-9.8-9.8 25.5-25.5z"/>
  <path fill="#FFFFFF" d="M127.5 340l14.2 42.5h44.8l-36.3 26.3 13.8 42.5-36.5-26.5-36.5 26.5 13.8-42.5-36.3-26.3h44.8z" transform="scale(0.6) translate(100, 300)"/>
</svg>
